<?xml version="1.0" encoding="UTF-8" standalone="no"?>
<!DOCTYPE svg PUBLIC "-//W3C//DTD SVG 1.1//EN" "http://www.w3.org/Graphics/SVG/1.1/DTD/svg11.dtd">
<svg width="100%" height="100%" viewBox="0 0 333 46" version="1.1" xmlns="http://www.w3.org/2000/svg" xmlns:xlink="http://www.w3.org/1999/xlink" xml:space="preserve" xmlns:serif="http://www.serif.com/" style="fill-rule:evenodd;clip-rule:evenodd;stroke-linejoin:round;stroke-miterlimit:2;">
    <g transform="matrix(5.30876,0,0,5.30876,-827.726,-2426.63)">
        <path d="M156.181,465.62C156.101,465.62 156.037,465.594 155.989,465.542C155.941,465.49 155.917,465.424 155.917,465.344L155.917,457.508C155.917,457.42 155.941,457.35 155.989,457.298C156.037,457.246 156.101,457.22 156.181,457.22L159.217,457.22C160.121,457.22 160.831,457.438 161.347,457.874C161.863,458.31 162.121,458.944 162.121,459.776C162.121,460.608 161.863,461.24 161.347,461.672C160.831,462.104 160.121,462.32 159.217,462.32L157.057,462.32L157.057,465.344C157.057,465.424 157.031,465.49 156.979,465.542C156.927,465.594 156.861,465.62 156.781,465.62L156.181,465.62ZM159.157,461.348C160.365,461.348 160.969,460.824 160.969,459.776C160.969,459.264 160.819,458.872 160.519,458.6C160.219,458.328 159.765,458.192 159.157,458.192L157.057,458.192L157.057,461.348L159.157,461.348Z" style="fill:rgb(194,214,212);fill-rule:nonzero;"/>
    </g>
    <g transform="matrix(5.30876,0,0,5.30876,-827.726,-2426.63)">
        <path d="M162.553,465.62C162.489,465.62 162.433,465.596 162.385,465.548C162.337,465.5 162.313,465.444 162.313,465.38L162.337,465.248L165.313,457.484C165.377,457.308 165.505,457.22 165.697,457.22L166.465,457.22C166.657,457.22 166.785,457.308 166.849,457.484L169.825,465.248L169.849,465.38C169.849,465.444 169.823,465.5 169.771,465.548C169.719,465.596 169.661,465.62 169.597,465.62L169.033,465.62C168.953,465.62 168.887,465.598 168.835,465.554C168.783,465.51 168.749,465.464 168.733,465.416L168.061,463.688L164.089,463.688L163.429,465.416C163.365,465.552 163.265,465.62 163.129,465.62L162.553,465.62ZM164.089,463.688L168.061,463.688L166.081,458.384L164.089,463.688Z" style="fill:rgb(47,166,154);fill-rule:nonzero;"/>
    </g>
    <g transform="matrix(5.30876,0,0,5.30876,-827.726,-2426.63)">
        <path d="M173.701,465.74C173.045,465.74 172.475,465.636 171.991,465.428C171.507,465.22 171.139,464.946 170.887,464.606C170.635,464.266 170.501,463.9 170.485,463.508C170.485,463.444 170.509,463.388 170.557,463.34C170.605,463.292 170.665,463.268 170.737,463.268L171.325,463.268C171.469,463.268 171.569,463.348 171.625,463.508C171.697,463.844 171.903,464.134 172.243,464.378C172.583,464.622 173.069,464.744 173.701,464.744C174.381,464.744 174.889,464.624 175.225,464.384C175.561,464.144 175.729,463.812 175.729,463.388C175.729,463.116 175.647,462.892 175.483,462.716C175.319,462.54 175.075,462.386 174.751,462.254C174.427,462.122 173.941,461.96 173.293,461.768C172.677,461.592 172.187,461.404 171.823,461.204C171.459,461.004 171.185,460.758 171.001,460.466C170.817,460.174 170.725,459.804 170.725,459.356C170.725,458.924 170.841,458.538 171.073,458.198C171.305,457.858 171.641,457.59 172.081,457.394C172.521,457.198 173.041,457.1 173.641,457.1C174.265,457.1 174.799,457.21 175.243,457.43C175.687,457.65 176.025,457.926 176.257,458.258C176.489,458.59 176.613,458.924 176.629,459.26C176.629,459.332 176.605,459.392 176.557,459.44C176.509,459.488 176.449,459.512 176.377,459.512L175.777,459.512C175.713,459.512 175.653,459.492 175.597,459.452C175.541,459.412 175.501,459.352 175.477,459.272C175.429,458.928 175.237,458.644 174.901,458.42C174.565,458.196 174.145,458.084 173.641,458.084C173.097,458.084 172.665,458.19 172.345,458.402C172.025,458.614 171.865,458.928 171.865,459.344C171.865,459.624 171.939,459.852 172.087,460.028C172.235,460.204 172.463,460.36 172.771,460.496C173.079,460.632 173.529,460.788 174.121,460.964C174.801,461.156 175.335,461.348 175.723,461.54C176.111,461.732 176.401,461.97 176.593,462.254C176.785,462.538 176.881,462.904 176.881,463.352C176.881,464.104 176.595,464.69 176.023,465.11C175.451,465.53 174.677,465.74 173.701,465.74Z" style="fill:rgb(194,214,212);fill-rule:nonzero;"/>
    </g>
    <g transform="matrix(5.30876,0,0,5.30876,-827.726,-2426.63)">
        <path d="M181.141,465.74C180.485,465.74 179.915,465.636 179.431,465.428C178.947,465.22 178.579,464.946 178.327,464.606C178.075,464.266 177.941,463.9 177.925,463.508C177.925,463.444 177.949,463.388 177.997,463.34C178.045,463.292 178.105,463.268 178.177,463.268L178.765,463.268C178.909,463.268 179.009,463.348 179.065,463.508C179.137,463.844 179.343,464.134 179.683,464.378C180.023,464.622 180.509,464.744 181.141,464.744C181.821,464.744 182.329,464.624 182.665,464.384C183.001,464.144 183.169,463.812 183.169,463.388C183.169,463.116 183.087,462.892 182.923,462.716C182.759,462.54 182.515,462.386 182.191,462.254C181.867,462.122 181.381,461.96 180.733,461.768C180.117,461.592 179.627,461.404 179.263,461.204C178.899,461.004 178.625,460.758 178.441,460.466C178.257,460.174 178.165,459.804 178.165,459.356C178.165,458.924 178.281,458.538 178.513,458.198C178.745,457.858 179.081,457.59 179.521,457.394C179.961,457.198 180.481,457.1 181.081,457.1C181.705,457.1 182.239,457.21 182.683,457.43C183.127,457.65 183.465,457.926 183.697,458.258C183.929,458.59 184.053,458.924 184.069,459.26C184.069,459.332 184.045,459.392 183.997,459.44C183.949,459.488 183.889,459.512 183.817,459.512L183.217,459.512C183.153,459.512 183.093,459.492 183.037,459.452C182.981,459.412 182.941,459.352 182.917,459.272C182.869,458.928 182.677,458.644 182.341,458.42C182.005,458.196 181.585,458.084 181.081,458.084C180.537,458.084 180.105,458.19 179.785,458.402C179.465,458.614 179.305,458.928 179.305,459.344C179.305,459.624 179.379,459.852 179.527,460.028C179.675,460.204 179.903,460.36 180.211,460.496C180.519,460.632 180.969,460.788 181.561,460.964C182.241,461.156 182.775,461.348 183.163,461.54C183.551,461.732 183.841,461.97 184.033,462.254C184.225,462.538 184.321,462.904 184.321,463.352C184.321,464.104 184.035,464.69 183.463,465.11C182.891,465.53 182.117,465.74 181.141,465.74Z" style="fill:rgb(194,214,212);fill-rule:nonzero;"/>
    </g>
    <g transform="matrix(5.30876,0,0,5.30876,-827.726,-2426.63)">
        <path d="M186.169,465.62C186.089,465.62 186.025,465.594 185.977,465.542C185.929,465.49 185.905,465.424 185.905,465.344L185.905,457.496C185.905,457.416 185.929,457.35 185.977,457.298C186.025,457.246 186.089,457.22 186.169,457.22L186.769,457.22C186.857,457.22 186.925,457.244 186.973,457.292C187.021,457.34 187.045,457.408 187.045,457.496L187.045,465.344C187.045,465.424 187.019,465.49 186.967,465.542C186.915,465.594 186.849,465.62 186.769,465.62L186.169,465.62Z" style="fill:rgb(194,214,212);fill-rule:nonzero;"/>
    </g>
    <g transform="matrix(5.30876,0,0,5.30876,-827.726,-2426.63)">
        <path d="M191.653,465.62C191.445,465.62 191.301,465.516 191.221,465.308L188.521,457.592L188.497,457.46C188.497,457.396 188.523,457.34 188.575,457.292C188.627,457.244 188.685,457.22 188.749,457.22L189.325,457.22C189.413,457.22 189.483,457.242 189.535,457.286C189.587,457.33 189.621,457.38 189.637,457.436L192.013,464.3L194.401,457.436C194.417,457.38 194.451,457.33 194.503,457.286C194.555,457.242 194.625,457.22 194.713,457.22L195.289,457.22C195.353,457.22 195.409,457.244 195.457,457.292C195.505,457.34 195.529,457.396 195.529,457.46C195.529,457.516 195.525,457.56 195.517,457.592L192.817,465.308C192.737,465.516 192.593,465.62 192.385,465.62L191.653,465.62Z" style="fill:rgb(239,83,80);fill-rule:nonzero;"/>
    </g>
    <g transform="matrix(5.30876,0,0,5.30876,-827.726,-2426.63)">
        <path d="M197.257,465.62C197.177,465.62 197.113,465.594 197.065,465.542C197.017,465.49 196.993,465.424 196.993,465.344L196.993,457.508C196.993,457.42 197.017,457.35 197.065,457.298C197.113,457.246 197.177,457.22 197.257,457.22L200.533,457.22C201.381,457.22 202.021,457.424 202.453,457.832C202.885,458.24 203.101,458.772 203.101,459.428C203.101,459.876 202.997,460.25 202.789,460.55C202.581,460.85 202.337,461.068 202.057,461.204C202.401,461.372 202.689,461.632 202.921,461.984C203.153,462.336 203.269,462.74 203.269,463.196C203.269,463.644 203.167,464.052 202.963,464.42C202.759,464.788 202.457,465.08 202.057,465.296C201.657,465.512 201.181,465.62 200.629,465.62L197.257,465.62ZM200.353,460.784C200.873,460.784 201.269,460.666 201.541,460.43C201.813,460.194 201.949,459.864 201.949,459.44C201.949,459.024 201.815,458.708 201.547,458.492C201.279,458.276 200.881,458.168 200.353,458.168L198.121,458.168L198.121,460.784L200.353,460.784ZM200.473,464.672C200.985,464.672 201.387,464.534 201.679,464.258C201.971,463.982 202.117,463.628 202.117,463.196C202.117,462.756 201.971,462.4 201.679,462.128C201.387,461.856 200.985,461.72 200.473,461.72L198.121,461.72L198.121,464.672L200.473,464.672Z" style="fill:rgb(194,214,212);fill-rule:nonzero;"/>
    </g>
    <g transform="matrix(5.30876,0,0,5.30876,-827.726,-2426.63)">
        <path d="M207.997,465.74C206.957,465.74 206.153,465.466 205.585,464.918C205.017,464.37 204.717,463.544 204.685,462.44C204.677,462.2 204.673,461.86 204.673,461.42C204.673,460.98 204.677,460.644 204.685,460.412C204.717,459.324 205.027,458.5 205.615,457.94C206.203,457.38 206.997,457.1 207.997,457.1C208.997,457.1 209.789,457.38 210.373,457.94C210.957,458.5 211.265,459.324 211.297,460.412C211.313,460.876 211.321,461.212 211.321,461.42C211.321,461.62 211.313,461.96 211.297,462.44C211.265,463.544 210.967,464.37 210.403,464.918C209.839,465.466 209.037,465.74 207.997,465.74ZM207.997,464.744C208.637,464.744 209.149,464.55 209.533,464.162C209.917,463.774 210.125,463.18 210.157,462.38C210.173,461.9 210.181,461.58 210.181,461.42C210.181,461.244 210.173,460.924 210.157,460.46C210.125,459.66 209.917,459.064 209.533,458.672C209.149,458.28 208.637,458.084 207.997,458.084C207.357,458.084 206.843,458.28 206.455,458.672C206.067,459.064 205.861,459.66 205.837,460.46C205.829,460.692 205.825,461.012 205.825,461.42C205.825,461.82 205.829,462.14 205.837,462.38C205.861,463.18 206.065,463.774 206.449,464.162C206.833,464.55 207.349,464.744 207.997,464.744Z" style="fill:rgb(194,214,212);fill-rule:nonzero;"/>
    </g>
    <g transform="matrix(5.30876,0,0,5.30876,-827.726,-2426.63)">
        <path d="M215.029,465.62C214.949,465.62 214.883,465.594 214.831,465.542C214.779,465.49 214.753,465.424 214.753,465.344L214.753,458.252L212.437,458.252C212.357,458.252 212.291,458.226 212.239,458.174C212.187,458.122 212.161,458.056 212.161,457.976L212.161,457.508C212.161,457.42 212.187,457.35 212.239,457.298C212.291,457.246 212.357,457.22 212.437,457.22L218.197,457.22C218.285,457.22 218.353,457.246 218.401,457.298C218.449,457.35 218.473,457.42 218.473,457.508L218.473,457.976C218.473,458.056 218.447,458.122 218.395,458.174C218.343,458.226 218.277,458.252 218.197,458.252L215.893,458.252L215.893,465.344C215.893,465.424 215.865,465.49 215.809,465.542C215.753,465.594 215.685,465.62 215.605,465.62L215.029,465.62Z" style="fill:rgb(194,214,212);fill-rule:nonzero;"/>
    </g>
</svg>
