<?xml version="1.0" encoding="UTF-8" standalone="no"?>
<!DOCTYPE svg PUBLIC "-//W3C//DTD SVG 1.1//EN" "http://www.w3.org/Graphics/SVG/1.1/DTD/svg11.dtd">
<svg width="100%" height="100%" viewBox="0 0 325 48" version="1.1" xmlns="http://www.w3.org/2000/svg" xmlns:xlink="http://www.w3.org/1999/xlink" xml:space="preserve" xmlns:serif="http://www.serif.com/" style="fill-rule:evenodd;clip-rule:evenodd;stroke-linejoin:round;stroke-miterlimit:2;">
    <g transform="matrix(0.823392,0,0,0.924111,-702.577,-480.155)">
        <path d="M899.6,565.399L914.558,531.735L930.622,565.399L938.778,565.399L917.887,521.621L914.387,519.586L910.944,521.699L891.527,565.399L899.6,565.399Z" style="fill:rgb(47,166,154);"/>
    </g>
    <g transform="matrix(-0.823392,1.00836e-16,-1.13171e-16,-0.924111,936.851,522.908)">
        <path d="M899.58,565.443L914.558,531.735L930.643,565.443L938.799,565.443L917.887,521.621L914.387,519.586L910.944,521.699L891.508,565.443L899.58,565.443Z" style="fill:rgb(239,83,80);"/>
    </g>
    <g transform="matrix(1.01101,0,0,1.01101,-814.117,-529.392)">
        <path d="M908.245,524L880.778,524L880.778,547L902.245,547L902.245,559.505L880.778,559.505L880.778,565.505L908.245,565.505L908.245,541L886.778,541L886.778,530L905.216,530L908.245,524Z" style="fill:rgb(163,194,191);"/>
    </g>
    <g transform="matrix(1.01101,0,0,1.01101,-778.993,-529.392)">
        <path d="M908.245,524L880.778,524L880.778,547L902.245,547L902.245,559.505L880.778,559.505L880.778,565.505L908.245,565.505L908.245,541L886.778,541L886.778,530L905.216,530L908.245,524Z" style="fill:rgb(163,194,191);"/>
    </g>
    <g transform="matrix(1.0866,0,0,1.0866,-881.634,-569.001)">
        <path d="M950.152,524L950.152,562.617L956.152,562.617L956.152,524L950.152,524Z" style="fill:rgb(163,194,191);"/>
    </g>
    <g transform="matrix(1,0,0,1,-1764.58,-581.772)">
        <path d="M2089.42,582.147L2052.61,582.147L2052.51,585.407L2052.51,588.667L2067.71,588.667L2067.71,624.818L2074.23,624.818L2074.23,588.667L2089.42,588.667L2089.42,582.147Z" style="fill:rgb(163,194,191);"/>
    </g>
    <g transform="matrix(0.931461,0,0,0.931461,-788.016,-539.041)">
        <path d="M852,604.88L875.972,604.88L878.972,601.88L878.972,578.705L846,578.705L846,629.409L852,624.157L852,604.88ZM852,598.88L872.972,598.88L872.972,584.705L852,584.705L852,598.88Z" style="fill:rgb(163,194,191);"/>
    </g>
    <g transform="matrix(1,0,0,1,-1764.58,-581.772)">
        <path d="M1972.17,582.065L1972.17,624.818L2001.31,624.818L2004.2,621.923L2004.2,601.654L2001.31,598.758L1998.3,598.758L1998.3,584.961L1995.41,582.065L1972.17,582.065ZM1995.41,604.549L1995.41,604.549L1998.41,604.549L1998.41,619.027L1977.96,619.027L1977.96,604.549L1995.41,604.549ZM1977.96,598.758L1977.96,587.857L1992.51,587.857L1992.51,598.758L1977.96,598.758Z" style="fill:rgb(163,194,191);"/>
    </g>
    <g transform="matrix(1.23361,0,0,1.16115,-1094.95,-655.353)">
        <path d="M1088.6,599L1090.93,601.471L1112,601.471L1114.33,599L1114.33,567.193L1112,564.722L1090.93,564.722L1088.6,567.193L1088.6,599ZM1093.25,596.529L1093.25,569.663L1109.67,569.663L1109.67,596.529L1093.25,596.529Z" style="fill:rgb(163,194,191);"/>
    </g>
</svg>
